<svg width="578" height="143" viewBox="0 0 578 143" fill="none" xmlns="http://www.w3.org/2000/svg">
<path d="M199.5 87.8C199.5 91 199.8 94.1 199.9 95.3H195.1C194.8 94.2 194.6 91.6 194.6 89.6C192.9 93.7 189.2 96.1 183.4 96.1C174.4 96.1 171.3 89.1 171.3 82.7C171.3 74.5 176.8 67.9 189.2 67.9C191.6 67.9 193 67.9 194.5 68.1V61.5C194.5 57.5 193.7 52.3 186.7 52.3C179 52.3 178.6 57.9 178.3 61.1H173.2C173.4 54.5 176.6 47.8 186.9 47.8C195.6 47.8 199.6 52.1 199.6 60.6V87.8H199.5ZM194.5 72.6C193.3 72.4 191.9 72.3 189.4 72.3C180.3 72.3 176.4 76.7 176.4 82.4C176.4 87.3 179 91.5 184.4 91.5C191.7 91.5 194.4 86.4 194.4 75.5V72.6H194.5Z" fill="white"/>
<path d="M211.2 63C211.2 53.5 211.1 50.6 211.1 48.6H216.2C216.3 49.7 216.4 51.5 216.4 55.2C218 51.2 221.4 47.8 227.7 47.8C234.1 47.8 239.7 51.3 239.7 62V95.3H234.4V63C234.4 56.9 232.2 52.6 226.5 52.6C219.4 52.6 216.4 57.4 216.4 67.9V95.3H211.1V63H211.2Z" fill="white"/>
<path d="M277.201 87.8C277.201 91 277.5 94.1 277.6 95.3H272.8C272.5 94.2 272.3 91.6 272.3 89.6C270.6 93.7 266.9 96.1 261.1 96.1C252.1 96.1 249 89.1 249 82.7C249 74.5 254.5 67.9 266.9 67.9C269.3 67.9 270.701 67.9 272.201 68.1V61.5C272.201 57.5 271.4 52.3 264.4 52.3C256.7 52.3 256.3 57.9 256 61.1H250.9C251.1 54.5 254.3 47.8 264.6 47.8C273.3 47.8 277.3 52.1 277.3 60.6V87.8H277.201ZM272.201 72.6C271.001 72.4 269.6 72.3 267.1 72.3C258 72.3 254.1 76.7 254.1 82.4C254.1 87.3 256.7 91.5 262.1 91.5C269.4 91.5 272.1 86.4 272.1 75.5V72.6H272.201Z" fill="white"/>
<path d="M289 95.3V29.2H294.201V95.3H289Z" fill="white"/>
<path d="M306.7 48.6C312.3 69.9 316.5 84.3 317.1 89.1H317.2C318.1 84.2 322.7 67.3 327.6 48.6H333.1L319.3 97.7C315.6 111 312.6 113.3 305.9 113.3C305 113.3 303.7 113.2 302.9 113V108.2C303.5 108.4 304.8 108.5 305.9 108.5C311.1 108.5 312.4 104.7 314.5 96.4L300.9 48.6H306.7Z" fill="white"/>
<path d="M333.9 48.6H340.7V35.9H345.8V48.6H354.3V53.2H345.8V85.8C345.8 89.2 346.6 91.4 350.2 91.4C351.3 91.4 352.9 91.3 353.7 91.1V95.2C352.3 95.7 350.1 95.9 348.6 95.9C343.9 95.9 340.7 93.9 340.7 86.9V53.2H333.9V48.6Z" fill="white"/>
<path d="M360.9 48.6H366.1V95.3H360.9V48.6ZM360.9 29.2H366.1V38.5H360.9V29.2Z" fill="white"/>
<path d="M404.701 81.7C404.501 83.7 403.4 96.2 390.5 96.2C378.7 96.2 375.5 85.4 375.5 71.9C375.5 58.5 379.801 47.9 391.201 47.9C404.101 47.9 404.8 60.2 404.8 62.1H399.4C399.3 60.2 398.501 52.5 391.201 52.5C383.701 52.5 380.9 60.6 380.9 71.9C380.9 84.1 383.8 91.6 390.8 91.6C398.2 91.6 399.2 84.1 399.5 81.7H404.701Z" fill="white"/>
<path d="M412.9 32.5H424.2V85.7H445.7L444.6 95.3H412.9V32.5Z" fill="#615FF3"/>
<path d="M460.6 79.5L457.5 95.3H446.2L460.7 32.5H475.3L490 95.3H478.2L475.1 79.5H460.6ZM473.2 69.8C470.8 57.7 469 49 468 43H467.7C466.9 48.8 464.9 58.2 462.6 69.8H473.2Z" fill="#615FF3"/>
<path d="M496 32.5H515.1C526 32.5 532 38.5 532 48.4C532 56.3 528.201 60.2 524.701 61.5C529.101 63.3 533.8 67.4 533.8 76.8C533.8 88.7 526.001 95.3 514.901 95.3H496V32.5ZM512.401 57.6C519.401 57.6 521.201 54.9 521.201 49.5C521.201 44 518.3 41.5 512.8 41.5H507V57.6H512.401ZM507 86.6H513.701C519.301 86.6 522.5 83.7 522.5 76.7C522.5 70.2 519.801 66.4 512.401 66.4H507V86.6Z" fill="#615FF3"/>
<path d="M550.1 77.7C550.6 82.9 552.7 87.5 558.5 87.5C564 87.5 566.1 84 566.1 79.4C566.1 74.2 563.6 71.2 555.6 67.5C544.8 62.4 540.6 57.9 540.6 48.5C540.6 38.4 547.1 31.5 558.4 31.5C572.5 31.5 576 41.1 576.2 49.2H565.2C564.8 45.6 563.9 40.3 558.2 40.3C553.8 40.3 551.8 43.2 551.8 47.4C551.8 51.9 553.8 54 561.2 57.5C572.5 62.7 577.5 67.8 577.5 78.3C577.5 88.2 571.4 96.3 558.1 96.3C543.7 96.3 539.3 87.1 538.9 77.6H550.1V77.7Z" fill="#615FF3"/>
<g filter="url(#filter0_d_8636_2431)">
<path d="M143 47.8C150.1 72.8 145.2 95.1 127.5 114.2C116.7 126 103 132.7 87.1003 134.5C66.7003 136.8 48.7003 131.1 33.4003 117.3C27.3003 111.8 22.3003 105.3 18.8003 97.9C20.2003 97 21.7003 96.3 22.7003 95.1C26.0003 91.4 26.5003 87.2 24.7003 82.6C30.7003 76.7 36.6003 70.7 42.6003 64.8C45.8003 66 49.0003 66 52.2003 64.8C54.7003 67.3 57.2003 69.8 59.7003 72.4C64.4003 77.1 69.1003 81.9 73.8003 86.6C73.7003 87.1 73.5003 87.5 73.4003 88C72.2003 92.4 73.1003 96.4 76.5003 99.5C79.9003 102.6 83.8003 103.3 88.1003 101.7C93.6003 99.6 97.0003 93.3 94.2003 86.6C96.3003 84.5 98.4003 82.3 100.6 80.2C111.5 69.3 122.4 58.4 133.3 47.5C136.6 48.9 139.8 48.8 143 47.8Z" fill="#5D32BB"/>
<path d="M142.656 48.4243C149.509 73.0652 144.595 95.0175 127.134 113.86L127.131 113.862C116.417 125.569 102.83 132.216 87.0441 134.003C66.7852 136.287 48.9279 130.632 33.7352 116.929L33.7351 116.929C27.7903 111.569 22.9028 105.256 19.4435 98.0865C19.6598 97.9534 19.8787 97.8226 20.0997 97.6906L20.1161 97.6808C20.4681 97.4706 20.8258 97.2566 21.1722 97.0321C21.8622 96.5849 22.5331 96.0797 23.079 95.4266C24.7823 93.5148 25.779 91.4542 26.1073 89.2615C26.4211 87.1655 26.1193 84.9805 25.2839 82.7273C28.2063 79.8511 31.1054 76.952 34.0028 74.0546L34.0038 74.0536C36.9047 71.1527 39.8039 68.2535 42.726 65.3777C45.8381 66.4738 48.9598 66.4741 52.0718 65.3787C54.4971 67.804 56.9187 70.2286 59.3399 72.7466L59.3398 72.7466L59.3467 72.7536C61.6956 75.1025 64.0447 77.4765 66.3949 79.8517C68.6786 82.1597 70.9634 84.4688 73.2483 86.7551C73.2131 86.8798 73.1715 87.0052 73.126 87.1419L73.1226 87.1521C73.051 87.3668 72.9696 87.611 72.9135 87.8846C71.6771 92.4362 72.612 96.6314 76.1634 99.8695C77.9216 101.473 79.8289 102.472 81.8708 102.854C83.9121 103.236 86.0547 102.995 88.2747 102.169L88.2786 102.167C93.945 100.004 97.4688 93.5746 94.7878 86.7192C95.4115 86.0934 96.0333 85.4618 96.6567 84.8286C98.0644 83.3986 99.4804 81.9602 100.946 80.5617L100.946 80.5618L100.954 80.5536L101.018 80.4897L101.082 80.4258L101.145 80.3619L101.209 80.2981L101.273 80.2342L101.337 80.1703L101.401 80.1065L101.465 80.0426L101.529 79.9787L101.593 79.9149L101.656 79.851L101.72 79.7871L101.784 79.7233L101.848 79.6594L101.912 79.5955L101.976 79.5317L102.04 79.4678L102.103 79.4039L102.167 79.3401L102.231 79.2762L102.295 79.2123L102.359 79.1485L102.423 79.0846L102.487 79.0207L102.551 78.9569L102.614 78.893L102.678 78.8291L102.742 78.7653L102.806 78.7014L102.87 78.6375L102.934 78.5737L102.998 78.5098L103.061 78.4459L103.125 78.3821L103.189 78.3182L103.253 78.2543L103.317 78.1905L103.381 78.1266L103.445 78.0627L103.509 77.9989L103.572 77.935L103.636 77.8711L103.7 77.8073L103.764 77.7434L103.828 77.6795L103.892 77.6157L103.956 77.5518L104.019 77.4879L104.083 77.4241L104.147 77.3602L104.211 77.2963L104.275 77.2325L104.339 77.1686L104.403 77.1047L104.467 77.0409L104.53 76.977L104.594 76.9131L104.658 76.8493L104.722 76.7854L104.786 76.7215L104.85 76.6577L104.914 76.5938L104.977 76.5299L105.041 76.4661L105.105 76.4022L105.169 76.3383L105.233 76.2744L105.297 76.2106L105.361 76.1467L105.425 76.0828L105.488 76.019L105.552 75.9551L105.616 75.8912L105.68 75.8274L105.744 75.7635L105.808 75.6996L105.872 75.6358L105.935 75.5719L105.999 75.508L106.063 75.4442L106.127 75.3803L106.191 75.3164L106.255 75.2526L106.319 75.1887L106.383 75.1248L106.446 75.061L106.51 74.9971L106.574 74.9332L106.638 74.8694L106.702 74.8055L106.766 74.7416L106.83 74.6778L106.894 74.6139L106.957 74.55L107.021 74.4862L107.085 74.4223L107.149 74.3584L107.213 74.2946L107.277 74.2307L107.341 74.1668L107.404 74.103L107.468 74.0391L107.532 73.9752L107.596 73.9114L107.66 73.8475L107.724 73.7836L107.788 73.7198L107.852 73.6559L107.915 73.592L107.979 73.5282L108.043 73.4643L108.107 73.4004L108.171 73.3366L108.235 73.2727L108.299 73.2088L108.362 73.145L108.426 73.0811L108.49 73.0172L108.554 72.9534L108.618 72.8895L108.682 72.8256L108.746 72.7618L108.81 72.6979L108.873 72.634L108.937 72.5702L109.001 72.5063L109.065 72.4424L109.129 72.3786L109.193 72.3147L109.257 72.2508L109.32 72.1869L109.384 72.1231L109.448 72.0592L109.512 71.9953L109.576 71.9315L109.64 71.8676L109.704 71.8037L109.768 71.7399L109.831 71.676L109.895 71.6121L109.959 71.5483L110.023 71.4844L110.087 71.4205L110.151 71.3567L110.215 71.2928L110.278 71.2289L110.342 71.1651L110.406 71.1012L110.47 71.0373L110.534 70.9735L110.598 70.9096L110.662 70.8457L110.726 70.7819L110.789 70.718L110.853 70.6541L110.917 70.5903L110.981 70.5264L111.045 70.4625L111.109 70.3987L111.173 70.3348L111.236 70.2709L111.3 70.2071L111.364 70.1432L111.428 70.0793L111.492 70.0155L111.556 69.9516L111.62 69.8877L111.684 69.8239L111.747 69.76L111.811 69.6961L111.875 69.6323L111.939 69.5684L112.003 69.5045L112.067 69.4407L112.131 69.3768L112.194 69.3129L112.258 69.2491L112.322 69.1852L112.386 69.1213L112.45 69.0575L112.514 68.9936L112.578 68.9297L112.642 68.8659L112.705 68.802L112.769 68.7381L112.833 68.6743L112.897 68.6104L112.961 68.5465L113.025 68.4827L113.089 68.4188L113.152 68.3549L113.216 68.2911L113.28 68.2272L113.344 68.1633L113.408 68.0994L113.472 68.0356L113.536 67.9717L113.6 67.9078L113.663 67.844L113.727 67.7801L113.791 67.7162L113.855 67.6524L113.919 67.5885L113.983 67.5246L114.047 67.4608L114.11 67.3969L114.174 67.333L114.238 67.2692L114.302 67.2053L114.366 67.1414L114.43 67.0776L114.494 67.0137L114.558 66.9498L114.621 66.886L114.685 66.8221L114.749 66.7582L114.813 66.6944L114.877 66.6305L114.941 66.5666L115.005 66.5028L115.068 66.4389L115.132 66.375L115.196 66.3112L115.26 66.2473L115.324 66.1834L115.388 66.1196L115.452 66.0557L115.516 65.9918L115.579 65.928L115.643 65.8641L115.707 65.8002L115.771 65.7364L115.835 65.6725L115.899 65.6086L115.963 65.5448L116.027 65.4809L116.09 65.417L116.154 65.3532L116.218 65.2893L116.282 65.2254L116.346 65.1616L116.41 65.0977L116.474 65.0338L116.537 64.97L116.601 64.9061L116.665 64.8422L116.729 64.7784L116.793 64.7145L116.857 64.6506L116.921 64.5868L116.985 64.5229L117.048 64.459L117.112 64.3952L117.176 64.3313L117.24 64.2674L117.304 64.2036L117.368 64.1397L117.432 64.0758L117.495 64.0119L117.559 63.9481L117.623 63.8842L117.687 63.8203L117.751 63.7565L117.815 63.6926L117.879 63.6287L117.943 63.5649L118.006 63.501L118.07 63.4371L118.134 63.3733L118.198 63.3094L118.262 63.2455L118.326 63.1817L118.39 63.1178L118.453 63.0539L118.517 62.9901L118.581 62.9262L118.645 62.8623L118.709 62.7985L118.773 62.7346L118.837 62.6707L118.901 62.6069L118.964 62.543L119.028 62.4791L119.092 62.4153L119.156 62.3514L119.22 62.2875L119.284 62.2237L119.348 62.1598L119.411 62.0959L119.475 62.0321L119.539 61.9682L119.603 61.9043L119.667 61.8405L119.731 61.7766L119.795 61.7127L119.859 61.6489L119.922 61.585L119.986 61.5211L120.05 61.4573L120.114 61.3934L120.178 61.3295L120.242 61.2657L120.306 61.2018L120.369 61.1379L120.433 61.0741L120.497 61.0102L120.561 60.9463L120.625 60.8825L120.689 60.8186L120.753 60.7547L120.817 60.6909L120.88 60.627L120.944 60.5631L121.008 60.4993L121.072 60.4354L121.136 60.3715L121.2 60.3077L121.264 60.2438L121.327 60.1799L121.391 60.1161L121.455 60.0522L121.519 59.9883L121.583 59.9245L121.647 59.8606L121.711 59.7967L121.775 59.7328L121.838 59.669L121.902 59.6051L121.966 59.5412L122.03 59.4774L122.094 59.4135L122.158 59.3496L122.222 59.2858L122.285 59.2219L122.349 59.158L122.413 59.0942L122.477 59.0303L122.541 58.9664L122.605 58.9026L122.669 58.8387L122.733 58.7748L122.796 58.711L122.86 58.6471L122.924 58.5832L122.988 58.5194L123.052 58.4555L123.116 58.3916L123.18 58.3278L123.243 58.2639L123.307 58.2L123.371 58.1362L123.435 58.0723L123.499 58.0084L123.563 57.9446L123.627 57.8807L123.691 57.8168L123.754 57.753L123.818 57.6891L123.882 57.6252L123.946 57.5614L124.01 57.4975L124.074 57.4336L124.138 57.3698L124.201 57.3059L124.265 57.242L124.329 57.1782L124.393 57.1143L124.457 57.0504L124.521 56.9866L124.585 56.9227L124.649 56.8588L124.712 56.795L124.776 56.7311L124.84 56.6672L124.904 56.6034L124.968 56.5395L125.032 56.4756L125.096 56.4118L125.16 56.3479L125.223 56.284L125.287 56.2202L125.351 56.1563L125.415 56.0924L125.479 56.0286L125.543 55.9647L125.607 55.9008L125.67 55.837L125.734 55.7731L125.798 55.7092L125.862 55.6453L125.926 55.5815L125.99 55.5176L126.054 55.4537L126.118 55.3899L126.181 55.326L126.245 55.2621L126.309 55.1983L126.373 55.1344L126.437 55.0705L126.501 55.0067L126.565 54.9428L126.628 54.8789L126.692 54.8151L126.756 54.7512L126.82 54.6873L126.884 54.6235L126.948 54.5596L127.012 54.4957L127.076 54.4319L127.139 54.368L127.203 54.3041L127.267 54.2403L127.331 54.1764L127.395 54.1125L127.459 54.0487L127.523 53.9848L127.586 53.9209L127.65 53.8571L127.714 53.7932L127.778 53.7293L127.842 53.6655L127.906 53.6016L127.97 53.5377L128.034 53.4739L128.097 53.41L128.161 53.3461L128.225 53.2823L128.289 53.2184L128.353 53.1545L128.417 53.0907L128.481 53.0268L128.544 52.9629L128.608 52.8991L128.672 52.8352L128.736 52.7713L128.8 52.7075L128.864 52.6436L128.928 52.5797L128.992 52.5159L129.055 52.452L129.119 52.3881L129.183 52.3243L129.247 52.2604L129.311 52.1965L129.375 52.1327L129.439 52.0688L129.502 52.0049L129.566 51.9411L129.63 51.8772L129.694 51.8133L129.758 51.7495L129.822 51.6856L129.886 51.6217L129.95 51.5578L130.013 51.494L130.077 51.4301L130.141 51.3662L130.205 51.3024L130.269 51.2385L130.333 51.1746L130.397 51.1108L130.46 51.0469L130.524 50.983L130.588 50.9192L130.652 50.8553L130.716 50.7914L130.78 50.7276L130.844 50.6637L130.908 50.5998L130.971 50.536L131.035 50.4721L131.099 50.4082L131.163 50.3444L131.227 50.2805L131.291 50.2166L131.355 50.1528L131.418 50.0889L131.482 50.025L131.546 49.9612L131.61 49.8973L131.674 49.8334L131.738 49.7696L131.802 49.7057L131.866 49.6418L131.929 49.578L131.993 49.5141L132.057 49.4502L132.121 49.3864L132.185 49.3225L132.249 49.2586L132.313 49.1948L132.377 49.1309L132.44 49.067L132.504 49.0032L132.568 48.9393L132.632 48.8754L132.696 48.8116L132.76 48.7477L132.824 48.6838L132.887 48.62L132.951 48.5561L133.015 48.4922L133.079 48.4284L133.143 48.3645L133.207 48.3006L133.271 48.2368L133.335 48.1729L133.398 48.109L133.418 48.089C136.567 49.34 139.628 49.2838 142.656 48.4243Z" stroke="black"/>
</g>
<path d="M12.2002 76.4C10.5002 62 12.9002 48.4 20.0002 35.8C28.6002 20.4 41.3002 9.8 58.1002 4.3C70.9002 0.0999987 83.8002 -0.0999992 96.8002 3.4C111.2 7.4 123 15.4 132.2 27.2C132.3 27.4 132.4 27.6 132.6 27.8C131.7 28.9 130.5 29.5 129.6 30.6C127 34.2 126.6 38.1 128.2 42.2C123.5 46.8 118.9 51.4 114.2 56.1C105.8 64.4 97.4002 72.8 89.0002 81.2C85.8002 80 82.6002 80 79.5002 81.2C79.3002 81.1 79.2002 80.9 79.0002 80.8C71.9002 73.7 64.8002 66.6 57.7002 59.5C59.7002 53.1 58.3002 48.4 53.4002 45.3C47.3002 41.4 39.0002 44.5 36.9002 51.4C36.0002 54.2 36.4002 56.8 37.2002 59.5C34.7002 62.1 32.1002 64.7 29.6002 67.2C26.2002 70.6 22.7002 73.9 19.5002 77.5C17.2002 76.1 14.7002 76.4 12.2002 76.4Z" fill="#5D32BB"/>
<path d="M128.2 42.2C129.4 44.5 131.2 46.3 133.5 47.6C122.6 58.5 111.7 69.4 100.8 80.3C98.7 82.4 96.6 84.6 94.4 86.7C93.2 84.3 91.3 82.5 89 81.1C97.4 72.7 105.8 64.4 114.2 56C118.8 51.4 123.5 46.8 128.2 42.2Z" fill="white"/>
<path d="M79.5004 81.1C77.2004 82.4 75.3004 84.3 74.0004 86.6C69.3004 81.9 64.6004 77.1 59.9004 72.4C57.4004 69.9 54.9004 67.4 52.4004 64.8C54.7004 63.5 56.5004 61.7 57.8004 59.4C64.9004 66.5 72.0004 73.6 79.1004 80.7C79.1004 80.8 79.3004 81 79.5004 81.1Z" fill="white"/>
<path d="M37.1004 59.3C38.5004 61.6 40.3004 63.5 42.6004 64.8C36.6004 70.7 30.7004 76.7 24.7004 82.6C23.5004 80.3 21.7004 78.5 19.4004 77.3C22.6004 73.7 26.2004 70.5 29.5004 67C32.1004 64.5 34.6004 61.9 37.1004 59.3Z" fill="white"/>
<path d="M47.3999 68.6C55.1319 68.6 61.3999 62.332 61.3999 54.6C61.3999 46.868 55.1319 40.6 47.3999 40.6C39.6679 40.6 33.3999 46.868 33.3999 54.6C33.3999 62.332 39.6679 68.6 47.3999 68.6Z" fill="white"/>
<path d="M47.4003 65.7C53.5307 65.7 58.5003 60.7304 58.5003 54.6C58.5003 48.4696 53.5307 43.5 47.4003 43.5C41.2699 43.5 36.3003 48.4696 36.3003 54.6C36.3003 60.7304 41.2699 65.7 47.4003 65.7Z" fill="#615FF3"/>
<path d="M14.6001 101.5C22.3321 101.5 28.6001 95.232 28.6001 87.5C28.6001 79.768 22.3321 73.5 14.6001 73.5C6.86811 73.5 0.600098 79.768 0.600098 87.5C0.600098 95.232 6.86811 101.5 14.6001 101.5Z" fill="white"/>
<path d="M14.6 98.6C20.7304 98.6 25.7 93.6304 25.7 87.5C25.7 81.3697 20.7304 76.4 14.6 76.4C8.46964 76.4 3.5 81.3697 3.5 87.5C3.5 93.6304 8.46964 98.6 14.6 98.6Z" fill="#615FF3"/>
<path d="M84.2002 105.4C91.9322 105.4 98.2002 99.132 98.2002 91.4C98.2002 83.668 91.9322 77.4 84.2002 77.4C76.4682 77.4 70.2002 83.668 70.2002 91.4C70.2002 99.132 76.4682 105.4 84.2002 105.4Z" fill="white"/>
<path d="M84.2001 102.5C90.3305 102.5 95.3001 97.5303 95.3001 91.4C95.3001 85.2696 90.3305 80.3 84.2001 80.3C78.0697 80.3 73.1001 85.2696 73.1001 91.4C73.1001 97.5303 78.0697 102.5 84.2001 102.5Z" fill="#615FF3"/>
<path d="M138.4 51.4C146.132 51.4 152.4 45.132 152.4 37.4C152.4 29.668 146.132 23.4 138.4 23.4C130.668 23.4 124.4 29.668 124.4 37.4C124.4 45.132 130.668 51.4 138.4 51.4Z" fill="white"/>
<path d="M138.4 48.5C144.531 48.5 149.5 43.5303 149.5 37.4C149.5 31.2696 144.531 26.3 138.4 26.3C132.27 26.3 127.3 31.2696 127.3 37.4C127.3 43.5303 132.27 48.5 138.4 48.5Z" fill="#615FF3"/>
<defs>
<filter id="filter0_d_8636_2431" x="14.8003" y="47.5" width="135.33" height="95.4957" filterUnits="userSpaceOnUse" color-interpolation-filters="sRGB">
<feFlood flood-opacity="0" result="BackgroundImageFix"/>
<feColorMatrix in="SourceAlpha" type="matrix" values="0 0 0 0 0 0 0 0 0 0 0 0 0 0 0 0 0 0 127 0" result="hardAlpha"/>
<feOffset dy="4"/>
<feGaussianBlur stdDeviation="2"/>
<feComposite in2="hardAlpha" operator="out"/>
<feColorMatrix type="matrix" values="0 0 0 0 0 0 0 0 0 0 0 0 0 0 0 0 0 0 0.25 0"/>
<feBlend mode="normal" in2="BackgroundImageFix" result="effect1_dropShadow_8636_2431"/>
<feBlend mode="normal" in="SourceGraphic" in2="effect1_dropShadow_8636_2431" result="shape"/>
</filter>
</defs>
</svg>
