<svg xmlns="http://www.w3.org/2000/svg" viewBox="0 0 120 28">
  <!-- KiSTI wordmark — "Ki" in matching angular style + actual STI logo from sti.jp -->
  <!-- K - geometric angular style matching STI letterforms -->
  <g fill="#c80c47">
    <!-- K vertical stem -->
    <rect x="0" y="0" width="4" height="28"/>
    <!-- K upper diagonal -->
    <polygon points="4,14 4,10 18,0 22,0 8,14"/>
    <!-- K lower diagonal -->
    <polygon points="4,14 8,14 22,28 18,28 4,18"/>
  </g>
  <!-- i - dot + stem -->
  <g fill="#c80c47">
    <rect x="24" y="0" width="4" height="4"/>
    <rect x="24" y="8" width="4" height="20"/>
  </g>
  <!-- Actual STI logo path from sti.jp/en/ — shifted right by 34px -->
  <g fill="#c80c47" transform="translate(34, 0)">
    <path d="M47.1,28h3.5l9-16.3h-17v16.3h3.1v-13.1h8.7l-7.3,13.1ZM62.7,0l-3.1,5.5H11.1c-4.2,0-7.6,3.6-7.6,7.8s.8,4.1,2.2,5.5c1.4,1.5,3.3,2.3,5.4,2.3h12.5v-3.1h-12.5c-1.2,0-2.4-.5-3.2-1.4-1.8-1.8-1.8-4.8,0-6.6.8-.9,2-1.4,3.2-1.4h50.3l3.1-5.5h4.3l-3.1,5.5h3.5L74,0h-11.3ZM11.1,14.9h12.8c1.3,0,2.5.5,3.4,1.5s1.4,2.2,1.4,3.6c0,2.7-2.1,4.8-4.7,4.9H1.5l-1.5,3.1h23.9c2.1.1,4.1-.8,5.6-2.3,2.8-3,3.1-7.6.6-10.8h5.1v13.1h3.1V11.7H11.1v3.2ZM54.9,28h3.5l9-16.3h-3.4l-9.1,16.3Z"/>
  </g>
</svg>
